<svg xmlns="http://www.w3.org/2000/svg" viewBox="0 0 512 512" width="512" height="512">
  <!-- Cobalt disc (DESIGN.md oklch(0.52 0.2 262)) with a "B" monogram outlined from Inter 600 so it renders without the font installed. -->
  <circle cx="256" cy="256" r="256" fill="#1f5ed9"/>
  <path fill="#ffffff" d="M264.0 384L160.7 384L160.7 128L258.7 128Q286.3 128 304.7 136.8Q323.1 145.5 332.2 160.5Q341.3 175.4 341.3 194.5L341.3 194.5Q341.3 210.1 335.3 221.2Q329.3 232.3 319.2 239.2Q309.2 246.0 296.6 249.0L296.6 249.0L296.6 251.5Q310.2 252.2 322.7 259.8Q335.3 267.3 343.3 281.1Q351.3 294.8 351.3 314.2L351.3 314.2Q351.3 334.2 341.6 350.0Q332.0 365.8 312.7 374.9Q293.4 384 264.0 384L264.0 384ZM206.6 270.3L206.6 345.7L256.8 345.7Q282.2 345.7 293.5 335.9Q304.7 326.1 304.7 310.8L304.7 310.8Q304.7 299.3 299.0 290.1Q293.4 280.9 283.0 275.6Q272.6 270.3 258.3 270.3L258.3 270.3L206.6 270.3ZM206.6 166.1L206.6 237.1L252.8 237.1Q265.0 237.1 274.6 232.6Q284.3 228.2 289.8 219.9Q295.4 211.7 295.4 200.3L295.4 200.3Q295.4 185.4 285.0 175.8Q274.5 166.1 253.9 166.1L253.9 166.1L206.6 166.1Z"/>
</svg>
